<?xml version="1.0" standalone="no"?>
<!DOCTYPE svg PUBLIC "-//W3C//DTD SVG 20010904//EN"
 "http://www.w3.org/TR/2001/REC-SVG-20010904/DTD/svg10.dtd">
<svg version="1.0" xmlns="http://www.w3.org/2000/svg"
 width="500.000000pt" height="500.000000pt" viewBox="0 0 500.000000 500.000000"
 preserveAspectRatio="xMidYMid meet">
<metadata>
Created by potrace 1.14, written by Peter Selinger 2001-2017
</metadata>
<g transform="translate(0.000000,500.000000) scale(0.100000,-0.100000)"
fill="#000000" stroke="none">
<path d="M1346 4679 c-60 -47 -56 46 -56 -1442 l0 -1364 23 -34 c12 -18 34
-39 47 -46 20 -10 263 -12 1151 -10 1111 2 1127 2 1149 22 52 46 50 -14 50
1435 0 1467 3 1393 -55 1438 l-28 22 -1127 0 -1127 0 -27 -21z m107 -51 c-10
-29 -11 -2733 0 -2771 7 -26 6 -27 -28 -27 -43 0 -72 26 -80 72 -3 18 -4 634
-3 1369 3 1298 4 1338 22 1358 13 15 31 21 58 21 37 0 39 -2 31 -22z m2183 1
c18 -20 19 -60 22 -1358 1 -735 0 -1351 -3 -1369 -3 -18 -15 -42 -26 -53 -19
-19 -42 -19 -1048 -19 -1025 0 -1028 0 -1055 21 l-26 20 0 1370 c0 1356 0
1369 20 1389 20 20 33 20 1058 20 l1039 0 19 -21z"/>
<path d="M2015 4536 c-43 -18 -93 -79 -101 -121 -9 -51 1 -109 24 -143 l21
-28 -45 -12 c-63 -17 -128 -84 -148 -153 -17 -56 -22 -264 -8 -287 7 -9 80
-12 333 -10 l324 3 3 135 c2 105 -1 144 -13 177 -20 52 -90 118 -144 134 -23
7 -41 14 -41 16 0 2 9 16 21 32 40 55 35 146 -13 206 -45 57 -144 81 -213 51z
m125 -51 c48 -25 70 -62 70 -117 0 -43 -4 -54 -34 -84 -30 -30 -40 -34 -85
-34 -44 0 -56 5 -87 33 -65 59 -51 161 26 199 43 22 72 23 110 3z"/>
<path d="M2637 4494 c-4 -4 -7 -49 -7 -100 0 -75 3 -93 16 -98 24 -9 467 -7
482 2 9 6 12 34 10 103 l-3 94 -246 3 c-135 1 -248 -1 -252 -4z m453 -94 l0
-50 -205 0 -205 0 0 50 0 50 205 0 205 0 0 -50z"/>
<path d="M2633 4174 c-3 -8 -1 -20 4 -25 5 -5 158 -8 384 -7 366 3 374 3 374
23 0 20 -8 20 -378 23 -336 2 -378 1 -384 -14z"/>
<path d="M2637 4033 c-13 -12 -7 -41 9 -47 28 -11 714 -7 735 4 23 13 25 36 3
44 -21 8 -739 8 -747 -1z"/>
<path d="M2633 3864 c-3 -8 -1 -20 4 -25 5 -5 158 -8 384 -7 366 3 374 3 374
23 0 20 -8 20 -378 23 -336 2 -378 1 -384 -14z"/>
<path d="M2020 3665 c-46 -21 -68 -42 -92 -89 -26 -51 -21 -133 10 -176 l22
-29 -41 -11 c-25 -7 -61 -30 -90 -57 -67 -62 -81 -111 -77 -269 l3 -119 333
-3 332 -2 0 140 c0 97 -4 151 -14 174 -22 53 -73 103 -129 126 l-53 22 24 47
c19 37 22 56 18 96 -13 116 -144 196 -246 150z m156 -79 c30 -30 34 -40 34
-85 0 -44 -5 -56 -34 -89 -31 -33 -39 -37 -84 -37 -63 0 -101 26 -121 82 -18
51 -9 87 34 130 29 29 39 33 85 33 46 0 56 -4 86 -34z"/>
<path d="M2634 3617 c-3 -8 -4 -54 -2 -103 l3 -89 250 0 250 0 0 100 0 100
-248 3 c-200 2 -248 0 -253 -11z m456 -97 l0 -50 -205 0 -205 0 0 50 0 50 205
0 205 0 0 -50z"/>
<path d="M2637 3313 c-15 -14 -6 -41 16 -47 12 -3 178 -6 368 -6 362 0 391 3
376 44 -6 14 -43 16 -380 16 -206 0 -377 -3 -380 -7z"/>
<path d="M2632 3138 l3 -23 380 0 c373 0 380 0 380 20 0 20 -8 20 -383 23
l-383 2 3 -22z"/>
<path d="M2633 2994 c-3 -8 -1 -20 4 -25 5 -5 158 -8 384 -7 366 3 374 3 374
23 0 20 -8 20 -378 23 -336 2 -378 1 -384 -14z"/>
<path d="M2015 2736 c-95 -44 -133 -161 -81 -252 l23 -41 -41 -11 c-53 -14
-111 -63 -138 -115 -18 -34 -22 -64 -26 -164 -2 -67 -1 -134 2 -148 l6 -25
328 2 327 3 3 135 c3 153 -7 195 -60 249 -34 34 -97 71 -123 71 -20 0 -19 5 5
38 50 68 29 181 -45 238 -44 33 -131 43 -180 20z m162 -80 c28 -31 33 -43 33
-87 0 -45 -4 -55 -34 -85 -30 -30 -41 -34 -84 -34 -136 0 -181 181 -59 236 51
23 106 11 144 -30z m88 -285 c82 -37 105 -90 105 -236 l0 -105 -280 0 -280 0
0 109 c0 120 8 152 48 195 45 48 74 55 227 55 115 1 147 -3 180 -18z"/>
<path d="M2637 2694 c-4 -4 -7 -49 -7 -100 0 -75 3 -93 16 -98 24 -9 467 -7
482 2 9 6 12 34 10 103 l-3 94 -246 3 c-135 1 -248 -1 -252 -4z m453 -94 l0
-50 -205 0 -205 0 0 50 0 50 205 0 205 0 0 -50z"/>
<path d="M2633 2374 c-3 -8 -1 -20 4 -25 5 -5 158 -8 384 -7 366 3 374 3 374
23 0 20 -8 20 -378 23 -336 2 -378 1 -384 -14z"/>
<path d="M2633 2224 c-3 -8 -1 -20 4 -25 5 -5 158 -8 384 -7 366 3 374 3 374
23 0 20 -8 20 -378 23 -336 2 -378 1 -384 -14z"/>
<path d="M2642 2081 c-8 -5 -12 -17 -10 -27 3 -18 20 -19 381 -22 344 -2 378
-1 384 14 15 41 -13 44 -386 44 -196 0 -362 -4 -369 -9z"/>
<path d="M2285 1638 c-6 -21 -135 -627 -135 -638 0 -6 8 -10 18 -10 15 0 26
38 77 265 32 146 61 265 64 265 3 0 49 -99 101 -220 52 -121 99 -218 104 -217
5 2 51 99 102 216 51 117 95 215 98 218 8 9 11 -3 66 -252 28 -126 54 -240 57
-252 3 -14 13 -23 24 -23 10 0 19 1 19 3 0 14 -141 651 -145 655 -3 3 -7 3
-10 0 -3 -2 -49 -107 -103 -232 -55 -125 -103 -228 -108 -228 -5 -1 -54 103
-109 230 -55 128 -104 232 -108 232 -4 0 -9 -6 -12 -12z"/>
<path d="M3205 1641 c-107 -28 -169 -115 -145 -202 19 -69 76 -104 225 -139
47 -11 104 -29 125 -40 100 -51 90 -175 -17 -222 -40 -17 -60 -20 -137 -16
-82 5 -114 13 -208 53 -14 5 -18 2 -18 -13 0 -40 192 -90 297 -78 149 17 230
129 177 242 -23 47 -79 78 -204 109 -58 15 -122 36 -142 47 -91 51 -82 160 16
208 56 27 152 27 241 -1 69 -21 81 -20 72 4 -13 35 -208 68 -282 48z"/>
<path d="M1500 1315 l0 -325 240 0 c233 0 240 1 240 20 0 19 -7 20 -220 20
l-221 0 3 138 3 137 183 3 c153 2 182 5 182 17 0 13 -28 15 -185 15 l-185 0 0
130 0 130 215 0 c208 0 215 1 215 20 0 19 -7 20 -235 20 l-235 0 0 -325z"/>
<path d="M1020 820 c0 -7 505 -10 1495 -10 990 0 1495 3 1495 10 0 7 -505 10
-1495 10 -990 0 -1495 -3 -1495 -10z"/>
<path d="M260 585 l0 -55 35 0 c19 0 35 5 35 10 0 6 -11 10 -25 10 -34 0 -32
28 3 33 l27 4 -27 2 c-21 1 -28 6 -28 20 0 14 8 21 28 24 22 3 20 4 -10 6
l-38 1 0 -55z"/>
<path d="M430 586 c0 -65 19 -77 21 -13 l1 42 12 -39 c7 -22 17 -41 22 -43 5
-2 16 18 24 44 l14 48 6 -50 7 -50 1 58 c2 71 -21 80 -39 15 l-12 -43 -12 40
c-7 23 -19 41 -28 43 -14 3 -17 -6 -17 -52z"/>
<path d="M640 586 c0 -31 5 -56 10 -56 6 0 10 11 10 24 0 19 6 25 28 28 21 2
27 8 27 28 0 22 -5 25 -37 28 l-38 3 0 -55z m58 21 c2 -12 -3 -17 -17 -17 -15
0 -21 6 -21 21 0 25 33 22 38 -4z"/>
<path d="M810 585 l0 -55 35 0 c19 0 35 5 35 10 0 6 -11 10 -25 10 -23 0 -25
4 -25 45 0 25 -4 45 -10 45 -5 0 -10 -25 -10 -55z"/>
<path d="M981 626 c-17 -20 -10 -77 10 -89 46 -29 95 26 70 79 -12 28 -61 34
-80 10z m57 -8 c32 -32 0 -84 -37 -61 -22 14 -25 38 -6 57 20 19 27 20 43 4z"/>
<path d="M1160 632 c0 -4 5 -13 11 -19 6 -6 17 -28 24 -49 10 -27 14 -32 15
-17 0 12 9 38 21 57 12 20 16 36 10 36 -6 0 -16 -10 -22 -22 l-12 -22 -15 22
c-14 22 -32 30 -32 14z"/>
<path d="M1340 585 l0 -55 40 0 c22 0 40 5 40 10 0 6 -13 10 -30 10 -40 0 -42
30 -2 31 l27 1 -25 7 c-34 10 -31 34 5 42 27 6 26 7 -12 8 l-43 1 0 -55z"/>
<path d="M1510 585 l0 -55 35 0 c19 0 35 5 35 10 0 6 -11 10 -25 10 -34 0 -32
28 3 33 l27 4 -27 2 c-21 1 -28 6 -28 20 0 14 8 21 28 24 22 3 20 4 -10 6
l-38 1 0 -55z"/>
<path d="M1790 586 c0 -65 19 -77 21 -13 l1 42 12 -39 c7 -22 17 -41 22 -43 5
-2 16 18 24 44 l14 48 6 -50 7 -50 1 58 c2 71 -21 80 -39 15 l-12 -43 -12 40
c-7 23 -19 41 -28 43 -14 3 -17 -6 -17 -52z"/>
<path d="M2013 585 c-12 -30 -17 -55 -12 -55 6 0 12 7 15 15 8 20 41 19 53 -2
18 -33 20 -7 4 45 -9 29 -22 52 -28 52 -7 0 -21 -25 -32 -55z m46 -7 c1 -5 -6
-8 -14 -8 -16 0 -19 9 -8 36 6 16 7 16 14 -2 4 -10 8 -22 8 -26z"/>
<path d="M2180 585 c0 -30 5 -55 10 -55 6 0 10 19 10 43 l0 42 26 -42 c14 -24
29 -43 35 -43 5 0 9 25 9 55 0 30 -4 55 -10 55 -5 0 -10 -17 -10 -37 l-1 -38
-22 37 c-32 55 -47 49 -47 -17z"/>
<path d="M2386 608 c-23 -55 -28 -78 -18 -78 6 0 12 7 16 15 3 8 14 15 25 15
10 0 21 -7 25 -15 3 -8 9 -15 15 -15 5 0 0 25 -12 55 -11 30 -24 55 -29 55 -5
0 -15 -15 -22 -32z m34 -25 c0 -7 -7 -13 -16 -13 -11 0 -14 5 -10 16 3 9 6 21
6 27 0 16 20 -14 20 -30z"/>
<path d="M2553 614 c-15 -24 -15 -29 -2 -53 12 -21 23 -26 57 -27 40 -2 42 -1
42 27 0 25 -4 29 -27 29 -24 -1 -26 -2 -10 -11 23 -13 13 -29 -18 -29 -32 0
-45 44 -21 68 14 14 20 15 37 4 22 -14 35 -10 24 7 -13 22 -64 12 -82 -15z"/>
<path d="M2740 585 l0 -55 40 0 c22 0 40 5 40 10 0 6 -13 10 -30 10 -40 0 -42
30 -2 31 l27 1 -25 7 c-34 10 -31 34 5 42 27 6 26 7 -12 8 l-43 1 0 -55z"/>
<path d="M2910 586 c0 -65 19 -77 21 -13 l1 42 12 -39 c7 -22 17 -41 22 -43 5
-2 16 18 24 44 l14 48 6 -50 7 -50 1 58 c2 71 -21 80 -39 15 l-12 -43 -12 40
c-7 23 -19 41 -28 43 -14 3 -17 -6 -17 -52z"/>
<path d="M3120 585 l0 -55 35 0 c19 0 35 5 35 10 0 6 -11 10 -25 10 -34 0 -32
28 3 33 l27 4 -27 2 c-21 1 -28 6 -28 20 0 14 8 21 28 24 22 3 20 4 -10 6
l-38 1 0 -55z"/>
<path d="M3292 583 c1 -43 2 -48 5 -20 2 20 7 37 11 37 4 0 16 -16 26 -35 11
-19 23 -35 28 -35 4 0 7 26 7 58 -2 53 -2 55 -8 17 l-7 -40 -23 38 c-13 20
-27 37 -32 37 -5 0 -8 -26 -7 -57z"/>
<path d="M3483 633 c13 -3 17 -15 17 -54 0 -27 5 -49 10 -49 6 0 10 22 10 49
0 39 4 51 18 54 9 3 -3 5 -28 5 -25 0 -37 -2 -27 -5z"/>
<path d="M3767 633 c-17 -16 -5 -42 23 -52 17 -5 30 -14 30 -19 0 -14 -28 -23
-35 -12 -8 13 -25 13 -25 0 0 -16 49 -23 65 -10 25 20 17 39 -22 55 -28 12
-34 18 -25 27 10 10 17 10 32 0 27 -16 35 -15 20 3 -13 15 -51 20 -63 8z"/>
<path d="M3930 632 c0 -4 5 -13 11 -19 6 -6 17 -28 24 -49 10 -27 14 -32 15
-17 0 12 9 38 21 57 12 20 16 36 10 36 -6 0 -16 -10 -22 -22 l-12 -22 -15 22
c-14 22 -32 30 -32 14z"/>
<path d="M4117 633 c-16 -15 -5 -35 28 -49 35 -14 47 -33 23 -35 -18 -2 -21
-1 -43 7 -18 7 -19 6 -6 -10 21 -25 65 -17 69 12 3 18 -3 26 -27 35 -17 6 -31
15 -31 19 0 15 21 19 36 7 16 -13 30 -6 19 10 -7 12 -58 15 -68 4z"/>
<path d="M4295 631 c15 -6 22 -20 26 -57 l6 -49 1 48 c2 39 6 49 25 57 17 7
12 9 -28 9 -34 0 -44 -3 -30 -8z"/>
<path d="M4460 585 l0 -55 35 0 c19 0 35 5 35 10 0 6 -14 10 -31 10 -36 0 -35
21 2 31 l24 6 -25 4 c-35 6 -32 32 5 40 29 6 29 7 -7 8 l-38 1 0 -55z"/>
<path d="M4620 585 c0 -67 20 -74 21 -7 l1 47 15 -47 c8 -27 18 -48 22 -48 4
0 15 21 23 48 l16 47 1 -47 c1 -67 21 -60 21 7 0 48 -3 55 -20 55 -14 0 -21
-9 -26 -35 -9 -50 -21 -52 -29 -5 -5 30 -11 40 -26 40 -16 0 -19 -8 -19 -55z"/>
</g>
</svg>
